<svg width="34" height="33" viewBox="0 0 34 33" fill="none" xmlns="http://www.w3.org/2000/svg">
<g clip-path="url(#clip0_338_112)">
<path d="M31.4242 10.1662V14.8329C31.4242 14.8985 31.4109 14.9635 31.385 15.0241C31.3592 15.0847 31.3212 15.1398 31.2734 15.1862C31.2256 15.2326 31.1689 15.2694 31.1064 15.2945C31.0439 15.3196 30.977 15.3325 30.9094 15.3325C30.8418 15.3325 30.7748 15.3196 30.7124 15.2945C30.6499 15.2694 30.5932 15.2326 30.5454 15.1862C30.4975 15.1398 30.4596 15.0847 30.4338 15.0241C30.4079 14.9635 30.3946 14.8985 30.3946 14.8329V10.1662C30.3946 10.1005 30.4079 10.0356 30.4338 9.97495C30.4596 9.91433 30.4975 9.85925 30.5454 9.81285C30.5932 9.76645 30.6499 9.72965 30.7124 9.70454C30.7748 9.67943 30.8418 9.6665 30.9094 9.6665C30.977 9.6665 31.0439 9.67943 31.1064 9.70454C31.1689 9.72965 31.2256 9.76645 31.2734 9.81285C31.3212 9.85925 31.3592 9.91433 31.385 9.97495C31.4109 10.0356 31.4242 10.1005 31.4242 10.1662ZM2.72594 6.81588C2.24577 7.26589 2.9883 7.98816 3.45363 7.52213C3.91895 7.0561 3.19456 6.36426 2.72594 6.81588ZM3.08896 12.0015C2.95724 12.0087 2.83337 12.0646 2.74276 12.1576C2.65215 12.2507 2.60166 12.3739 2.60166 12.5019C2.60166 12.63 2.65215 12.7531 2.74276 12.8462C2.83337 12.9393 2.95724 12.9951 3.08896 13.0024C3.22067 12.9951 3.34454 12.9393 3.43516 12.8462C3.52577 12.7531 3.57625 12.63 3.57625 12.5019C3.57625 12.3739 3.52577 12.2507 3.43516 12.1576C3.34454 12.0646 3.22067 12.0087 3.08896 12.0015ZM2.72594 17.4817C2.24577 17.9301 2.9916 18.654 3.45363 18.188C3.91565 17.7219 3.19456 17.0301 2.72594 17.4817ZM34 2.99956V21.9995C33.9991 22.7947 33.6732 23.5572 33.0938 24.1195C32.5144 24.6819 31.7288 24.9982 30.9094 24.999H28.8484V32.5003C28.8484 32.6329 28.7942 32.7599 28.6976 32.8537C28.6011 32.9474 28.4701 33 28.3336 33H20.1624C20.0257 33 19.8946 32.9474 19.7978 32.8538C19.701 32.7601 19.6463 32.633 19.6459 32.5003V30.2391C17.9628 29.5808 16.0883 27.318 14.2006 26.7927C13.1521 26.7149 12.0974 26.7975 11.0754 27.0377C10.9718 27.058 10.8644 27.047 10.7676 27.006C10.6708 26.965 10.5893 26.8961 10.5341 26.8087C10.2787 26.2399 10.1918 25.6131 10.2833 24.999H3.09061C2.2712 24.9982 1.4856 24.6819 0.906183 24.1195C0.326771 23.5572 0.000873575 22.7947 0 21.9995L0 2.99956C0.000873575 2.20429 0.326771 1.44183 0.906183 0.879488C1.4856 0.317145 2.2712 0.00084784 3.09061 0L30.9094 0C31.7288 0.00084784 32.5144 0.317145 33.0938 0.879488C33.6732 1.44183 33.9991 2.20429 34 2.99956ZM5.15157 0.999321H3.09061C2.54428 1.00017 2.02057 1.21118 1.63426 1.58611C1.24794 1.96105 1.03053 2.46933 1.02965 2.99956V21.9995C1.03053 22.5297 1.24794 23.038 1.63426 23.4129C2.02057 23.7878 2.54428 23.9989 3.09061 23.9997H5.15157V0.999321ZM27.8188 30.3335H20.6772V32.0007H27.8188V30.3335ZM27.8188 19.7158C27.8012 19.4221 27.6691 19.146 27.4494 18.9435C27.2296 18.7409 26.9387 18.6271 26.6357 18.6252C26.271 18.5819 25.9575 18.9455 25.6027 18.7853C25.5297 18.753 25.4654 18.7046 25.415 18.644C25.3646 18.5834 25.3294 18.5123 25.3123 18.4362C25.2552 18.1798 25.1095 17.95 24.8995 17.7848C24.6894 17.6197 24.4276 17.5292 24.1572 17.5281C23.6738 17.4593 23.3949 17.9686 22.9527 17.9734C22.8799 17.9674 22.8094 17.9465 22.7456 17.912C22.6819 17.8775 22.6265 17.8301 22.5831 17.7732C22.4694 17.6356 22.3254 17.5245 22.1616 17.4482C21.9978 17.3719 21.8184 17.3323 21.6367 17.3323C21.455 17.3323 21.2757 17.3719 21.1119 17.4482C20.9481 17.5245 20.8041 17.6356 20.6904 17.7732C20.6257 17.8573 20.5353 17.9195 20.4321 17.951C20.3288 17.9824 20.218 17.9815 20.1154 17.9483C20.0127 17.9152 19.9234 17.8515 19.8602 17.7663C19.7969 17.6811 19.763 17.5787 19.7631 17.4737V11.7324C19.7499 10.7715 17.7483 10.7875 17.7351 11.7324V23.3143C17.7349 23.3919 17.7162 23.4685 17.6803 23.5379C17.6445 23.6073 17.5925 23.6676 17.5285 23.7142C17.4645 23.7608 17.3903 23.7923 17.3116 23.8063C17.2329 23.8203 17.1519 23.8163 17.0751 23.7947C15.6197 23.2566 10.5242 23.2406 11.3311 25.9727C12.3757 25.7417 13.4548 25.6972 14.5158 25.8414C16.4959 26.3218 18.4975 28.7833 20.1574 29.3326H27.8138L27.8188 19.7158ZM32.9703 2.99956C32.9695 2.46933 32.7521 1.96105 32.3657 1.58611C31.9794 1.21118 31.4557 1.00017 30.9094 0.999321H28.8484V16.4952C28.8484 16.6277 28.7942 16.7548 28.6976 16.8485C28.6011 16.9422 28.4701 16.9949 28.3336 16.9949C28.1971 16.9949 28.0661 16.9422 27.9696 16.8485C27.873 16.7548 27.8188 16.6277 27.8188 16.4952V0.999321H6.18287V23.9997H10.6975C11.5852 22.5504 15.1032 22.2381 16.7038 22.6801V11.7324C16.7467 9.46152 20.7482 9.45511 20.7911 11.7324V16.4664C21.1662 16.3245 21.5734 16.2817 21.9712 16.3425C22.3689 16.4033 22.7429 16.5654 23.055 16.8123C23.3143 16.6705 23.6003 16.5806 23.896 16.5478C24.1917 16.515 24.4912 16.54 24.7768 16.6214C25.0624 16.7027 25.3283 16.8388 25.5588 17.0215C25.7894 17.2041 25.9799 17.4298 26.1192 17.6851C26.4396 17.6109 26.773 17.607 27.0952 17.6737C27.4173 17.7403 27.7201 17.8758 27.9816 18.0703C28.243 18.2648 28.4564 18.5134 28.6064 18.7981C28.7563 19.0827 28.839 19.3962 28.8484 19.7158V23.9997H30.9094C31.4559 23.9993 31.9798 23.7884 32.3662 23.4134C32.7526 23.0384 32.9699 22.5298 32.9703 21.9995V2.99956ZM21.1211 5.33291H12.8707C12.007 5.3363 11.1799 5.67143 10.5701 6.26504C9.96035 6.85864 9.61756 7.66242 9.6167 8.50063V16.508C9.61975 17.3461 9.96469 18.1488 10.576 18.7407C11.1874 19.3325 12.0154 19.6653 12.8789 19.6661H15.1593C15.2959 19.6661 15.4268 19.6135 15.5234 19.5198C15.6199 19.4261 15.6742 19.299 15.6742 19.1665C15.6742 19.0339 15.6199 18.9068 15.5234 18.8131C15.4268 18.7194 15.2959 18.6668 15.1593 18.6668H12.8789C12.2862 18.6659 11.7181 18.4367 11.2995 18.0295C10.8808 17.6223 10.6459 17.0704 10.6463 16.4952V8.48782C10.6507 7.91563 10.8877 7.36827 11.3059 6.96487C11.724 6.56146 12.2893 6.33466 12.8789 6.33383H21.1293C21.7212 6.33468 22.2885 6.56324 22.707 6.96941C23.1255 7.37558 23.361 7.92622 23.3619 8.50063V15.0539C23.3694 15.1817 23.4269 15.3019 23.5228 15.3899C23.6187 15.4778 23.7456 15.5268 23.8776 15.5268C24.0095 15.5268 24.1364 15.4778 24.2323 15.3899C24.3282 15.3019 24.3858 15.1817 24.3932 15.0539V8.50063C24.3928 8.08408 24.3078 7.6717 24.1431 7.28705C23.9784 6.90239 23.7372 6.55299 23.4334 6.25882C23.1295 5.96465 22.7689 5.73147 22.3721 5.5726C21.9754 5.41373 21.5503 5.33228 21.1211 5.33291Z" fill="white"/>
</g>
<defs>
<clipPath id="clip0_338_112">
<rect width="34" height="33" fill="white"/>
</clipPath>
</defs>
</svg>
