<svg width="34" height="34" viewBox="0 0 34 34" fill="none" xmlns="http://www.w3.org/2000/svg">
<path fill-rule="evenodd" clip-rule="evenodd" d="M24.2857 21.3714H22.7314L22.1486 20.7886C24.0914 18.6514 25.2571 15.7371 25.2571 12.6286C25.2571 5.63429 19.6229 0 12.6286 0C5.63429 0 0 5.63429 0 12.6286C0 19.6229 5.63429 25.2571 12.6286 25.2571C15.7371 25.2571 18.6514 24.0914 20.7886 22.1486L21.3714 22.7314V24.2857L31.0857 34L34 31.0857L24.2857 21.3714ZM12.6286 21.3714C7.77143 21.3714 3.88571 17.4857 3.88571 12.6286C3.88571 7.77143 7.77143 3.88571 12.6286 3.88571C17.4857 3.88571 21.3714 7.77143 21.3714 12.6286C21.3714 17.4857 17.4857 21.3714 12.6286 21.3714Z" fill="white"/>
</svg>
