<svg width="34" height="34" viewBox="0 0 34 34" fill="none" xmlns="http://www.w3.org/2000/svg">
<path fill-rule="evenodd" clip-rule="evenodd" d="M9.71429 21.3714H11.2686L11.8514 20.7886C9.90857 18.6514 8.74286 15.7371 8.74286 12.6286C8.74286 5.63429 14.3771 0 21.3714 0C28.3657 0 34 5.63429 34 12.6286C34 19.6229 28.3657 25.2571 21.3714 25.2571C18.2629 25.2571 15.3486 24.0914 13.2114 22.1486L12.6286 22.7314V24.2857L2.91429 34L-5.96046e-08 31.0857L9.71429 21.3714ZM21.3714 21.3714C26.2286 21.3714 30.1143 17.4857 30.1143 12.6286C30.1143 7.77143 26.2286 3.88571 21.3714 3.88571C16.5143 3.88571 12.6286 7.77143 12.6286 12.6286C12.6286 17.4857 16.5143 21.3714 21.3714 21.3714Z" fill="white"/>
</svg>
